<?xml version="1.0" encoding="UTF-8"?>
<!DOCTYPE svg PUBLIC "-//W3C//DTD SVG 1.1//EN" "http://www.w3.org/Graphics/SVG/1.1/DTD/svg11.dtd">
<svg xmlns="http://www.w3.org/2000/svg" version="1.1" width="485px" height="514px" style="shape-rendering:geometricPrecision; text-rendering:geometricPrecision; image-rendering:optimizeQuality; fill-rule:evenodd; clip-rule:evenodd" xmlns:xlink="http://www.w3.org/1999/xlink">
<g><path style="opacity:0.982" fill="#7c8eca" d="M 332.5,20.5 C 334.434,21.1103 336.101,22.1103 337.5,23.5C 335.011,23.7593 333.344,22.7593 332.5,20.5 Z"/></g>
<g><path style="opacity:1" fill="#2f56b6" d="M 328.5,18.5 C 330.153,18.6596 331.486,19.3263 332.5,20.5C 333.344,22.7593 335.011,23.7593 337.5,23.5C 344.212,27.1735 350.878,30.8402 357.5,34.5C 358.733,36.7964 360.733,38.1298 363.5,38.5C 368.024,40.0435 372.024,42.3768 375.5,45.5C 376.68,47.913 378.68,48.913 381.5,48.5C 384.032,49.5957 386.365,50.9291 388.5,52.5C 388.821,54.0481 389.821,54.7148 391.5,54.5C 403.704,60.7619 415.371,67.7619 426.5,75.5C 426.81,77.1436 427.81,78.1436 429.5,78.5C 432.093,79.7536 434.427,81.4202 436.5,83.5C 436.738,85.4044 437.738,86.7377 439.5,87.5C 441.167,88.5 442.5,89.8333 443.5,91.5C 444.08,93.7488 445.413,95.4154 447.5,96.5C 447.738,98.4044 448.738,99.7377 450.5,100.5C 450.427,102.027 451.094,103.027 452.5,103.5C 453.674,104.514 454.34,105.847 454.5,107.5C 454.574,110.659 455.907,112.992 458.5,114.5C 461.129,118.377 462.796,122.71 463.5,127.5C 463.41,130.152 464.076,132.485 465.5,134.5C 466.793,137.679 467.46,141.012 467.5,144.5C 467.5,203.833 467.5,263.167 467.5,322.5C 466.065,335.934 461.732,348.267 454.5,359.5C 453.5,359.5 452.5,359.5 451.5,359.5C 451.5,361.167 451.5,362.833 451.5,364.5C 450.5,364.5 449.5,364.5 448.5,364.5C 448.5,365.833 448.5,367.167 448.5,368.5C 441.333,378.5 432.667,387 422.5,394C 406.185,404.156 389.518,413.656 372.5,422.5C 370.801,422.34 369.134,422.506 367.5,423C 368.598,423.77 368.598,424.603 367.5,425.5C 354.501,433.669 341.168,441.335 327.5,448.5C 326.334,305.667 326.167,162.667 327,19.5C 327.383,18.944 327.883,18.6107 328.5,18.5 Z"/></g>
<g><path style="opacity:0.902" fill="#9fafd8" d="M 357.5,34.5 C 359.882,35.3507 361.882,36.684 363.5,38.5C 360.733,38.1298 358.733,36.7964 357.5,34.5 Z"/></g>
<g><path style="opacity:1" fill="#8796d0" d="M 375.5,45.5 C 377.819,45.9925 379.819,46.9925 381.5,48.5C 378.68,48.913 376.68,47.913 375.5,45.5 Z"/></g>
<g><path style="opacity:0.914" fill="#8d9ed1" d="M 388.5,52.5 C 389.71,52.9321 390.71,53.5987 391.5,54.5C 389.821,54.7148 388.821,54.0481 388.5,52.5 Z"/></g>
<g><path style="opacity:0.557" fill="#98a9d4" d="M 426.5,75.5 C 428.19,75.8564 429.19,76.8564 429.5,78.5C 427.81,78.1436 426.81,77.1436 426.5,75.5 Z"/></g>
<g><path style="opacity:0.655" fill="#adbcda" d="M 436.5,83.5 C 438.262,84.2623 439.262,85.5956 439.5,87.5C 437.738,86.7377 436.738,85.4044 436.5,83.5 Z"/></g>
<g><path style="opacity:0.871" fill="#9bacd7" d="M 443.5,91.5 C 445.587,92.5846 446.92,94.2512 447.5,96.5C 445.413,95.4154 444.08,93.7488 443.5,91.5 Z"/></g>
<g><path style="opacity:0.729" fill="#a1b2da" d="M 447.5,96.5 C 449.262,97.2623 450.262,98.5956 450.5,100.5C 448.738,99.7377 447.738,98.4044 447.5,96.5 Z"/></g>
<g><path style="opacity:0.07" fill="#e4eefa" d="M 166.5,102.5 C 165.5,221.332 165.167,340.332 165.5,459.5C 164.168,340.333 164.168,220.999 165.5,101.5C 166.107,101.624 166.44,101.957 166.5,102.5 Z"/></g>
<g><path style="opacity:0.42" fill="#a8b8dc" d="M 450.5,100.5 C 451.906,100.973 452.573,101.973 452.5,103.5C 451.094,103.027 450.427,102.027 450.5,100.5 Z"/></g>
<g><path style="opacity:0.867" fill="#9aa9d7" d="M 167.5,102.5 C 168.71,102.932 169.71,103.599 170.5,104.5C 169.209,104.737 168.209,104.404 167.5,103.5C 167.5,103.167 167.5,102.833 167.5,102.5 Z"/></g>
<g><path style="opacity:1" fill="#3057b6" d="M 167.5,103.5 C 168.209,104.404 169.209,104.737 170.5,104.5C 170.821,106.048 171.821,106.715 173.5,106.5C 175.483,107.471 177.483,108.471 179.5,109.5C 180.446,112.313 182.446,113.646 185.5,113.5C 188.004,114.584 190.337,115.917 192.5,117.5C 193.344,119.759 195.011,120.759 197.5,120.5C 200.331,121.079 202.664,122.412 204.5,124.5C 205.344,126.759 207.011,127.759 209.5,127.5C 214.5,129.664 219.167,132.331 223.5,135.5C 224.976,137.5 226.809,139.167 229,140.5C 229.383,139.944 229.883,139.611 230.5,139.5C 230.833,139.5 231.167,139.5 231.5,139.5C 232.035,141.446 233.368,142.446 235.5,142.5C 244.291,146.394 252.624,151.061 260.5,156.5C 261.035,158.446 262.368,159.446 264.5,159.5C 271.418,163.748 277.418,169.081 282.5,175.5C 282.427,177.027 283.094,178.027 284.5,178.5C 287.556,180.949 289.889,183.949 291.5,187.5C 291.427,189.027 292.094,190.027 293.5,190.5C 293.427,192.027 294.094,193.027 295.5,193.5C 299.581,200.337 302.581,207.67 304.5,215.5C 304.565,218.428 305.232,221.095 306.5,223.5C 307.945,227.921 308.778,232.588 309,237.5C 309.667,311.5 309.667,385.5 309,459.5C 301.515,464.492 293.681,468.825 285.5,472.5C 282.68,472.087 280.68,473.087 279.5,475.5C 276.364,474.979 274.03,475.979 272.5,478.5C 255.682,484.726 238.349,486.393 220.5,483.5C 218.162,481.96 215.495,481.294 212.5,481.5C 210.485,480.076 208.152,479.41 205.5,479.5C 202.421,476.805 198.755,475.472 194.5,475.5C 193.508,475.672 192.842,475.338 192.5,474.5C 192.5,473.5 192.5,472.5 192.5,471.5C 189.833,471.167 187.167,470.833 184.5,470.5C 183.656,468.241 181.989,467.241 179.5,467.5C 176.996,466.416 174.663,465.083 172.5,463.5C 171.656,461.241 169.989,460.241 167.5,460.5C 166.168,341.402 166.168,222.402 167.5,103.5 Z"/></g>
<g><path style="opacity:0.922" fill="#8a9acf" d="M 170.5,104.5 C 171.71,104.932 172.71,105.599 173.5,106.5C 171.821,106.715 170.821,106.048 170.5,104.5 Z"/></g>
<g><path style="opacity:1" fill="#7589c8" d="M 454.5,107.5 C 456.588,109.336 457.921,111.669 458.5,114.5C 455.907,112.992 454.574,110.659 454.5,107.5 Z"/></g>
<g><path style="opacity:0.982" fill="#798bc9" d="M 179.5,109.5 C 181.795,110.475 183.795,111.808 185.5,113.5C 182.446,113.646 180.446,112.313 179.5,109.5 Z"/></g>
<g><path style="opacity:0.984" fill="#788bc9" d="M 192.5,117.5 C 194.434,118.11 196.101,119.11 197.5,120.5C 195.011,120.759 193.344,119.759 192.5,117.5 Z"/></g>
<g><path style="opacity:0.988" fill="#798cca" d="M 204.5,124.5 C 206.434,125.11 208.101,126.11 209.5,127.5C 207.011,127.759 205.344,126.759 204.5,124.5 Z"/></g>
<g><path style="opacity:0.604" fill="#94a8d2" d="M 463.5,127.5 C 464.924,129.515 465.59,131.848 465.5,134.5C 464.076,132.485 463.41,130.152 463.5,127.5 Z"/></g>
<g><path style="opacity:0.998" fill="#8393ce" d="M 223.5,135.5 C 226.331,136.079 228.664,137.412 230.5,139.5C 229.883,139.611 229.383,139.944 229,140.5C 226.809,139.167 224.976,137.5 223.5,135.5 Z"/></g>
<g><path style="opacity:0.925" fill="#93a4d3" d="M 231.5,139.5 C 233.23,140.026 234.564,141.026 235.5,142.5C 233.368,142.446 232.035,141.446 231.5,139.5 Z"/></g>
<g><path style="opacity:0.871" fill="#a3b2db" d="M 260.5,156.5 C 262.23,157.026 263.564,158.026 264.5,159.5C 262.368,159.446 261.035,158.446 260.5,156.5 Z"/></g>
<g><path style="opacity:0.951" fill="#7d8dc6" d="M 467.5,144.5 C 468.314,146.631 468.814,148.964 469,151.5C 469.667,205.5 469.667,259.5 469,313.5C 468.819,316.695 468.319,319.695 467.5,322.5C 467.5,263.167 467.5,203.833 467.5,144.5 Z"/></g>
<g><path style="opacity:0.92" fill="#7d8cc0" d="M 9.5,177.5 C 9.5,177.833 9.5,178.167 9.5,178.5C 8.5041,178.586 7.67076,178.252 7,177.5C 6.50001,222.832 6.33334,268.165 6.5,313.5C 6.16667,313.5 5.83333,313.5 5.5,313.5C 4.51409,268.295 4.18076,223.128 4.5,178C 5.74837,174.927 7.41504,174.76 9.5,177.5 Z"/></g>
<g><path style="opacity:0.647" fill="#869acd" d="M 282.5,175.5 C 283.906,175.973 284.573,176.973 284.5,178.5C 283.094,178.027 282.427,177.027 282.5,175.5 Z"/></g>
<g><path style="opacity:1" fill="#2f56b6" d="M 9.5,178.5 C 10.209,179.404 11.209,179.737 12.5,179.5C 15.6612,180.913 18.6612,182.58 21.5,184.5C 22.0347,186.446 23.368,187.446 25.5,187.5C 34.0028,191.917 42.3361,196.583 50.5,201.5C 50.8212,203.048 51.8212,203.715 53.5,203.5C 57.2996,205.234 60.9663,207.234 64.5,209.5C 64.8773,211.824 65.8773,212.491 67.5,211.5C 71.3267,213.246 74.9934,215.246 78.5,217.5C 78.8212,219.048 79.8212,219.715 81.5,219.5C 84.0316,220.596 86.3649,221.929 88.5,223.5C 88.8773,225.824 89.8773,226.491 91.5,225.5C 96.3434,227.418 100.677,230.084 104.5,233.5C 104.821,235.048 105.821,235.715 107.5,235.5C 109.167,236.833 110.833,238.167 112.5,239.5C 112.525,242.179 113.858,243.512 116.5,243.5C 118.833,245.167 120.833,247.167 122.5,249.5C 122.427,251.027 123.094,252.027 124.5,252.5C 125.08,254.749 126.413,256.415 128.5,257.5C 128.738,259.404 129.738,260.738 131.5,261.5C 132.338,261.842 132.672,262.508 132.5,263.5C 132.241,265.989 133.241,267.656 135.5,268.5C 139.494,274.169 142.161,280.502 143.5,287.5C 143.89,290.839 144.39,294.173 145,297.5C 145.383,298.056 145.883,298.389 146.5,298.5C 147.403,348.16 147.736,397.827 147.5,447.5C 146.5,447.5 145.5,447.5 144.5,447.5C 143.656,445.241 141.989,444.241 139.5,444.5C 138.29,444.068 137.29,443.401 136.5,442.5C 134.992,439.907 132.659,438.574 129.5,438.5C 127.992,435.907 125.659,434.574 122.5,434.5C 122.027,433.094 121.027,432.427 119.5,432.5C 117.181,432.008 115.181,431.008 113.5,429.5C 112.656,427.241 110.989,426.241 108.5,426.5C 108.027,425.094 107.027,424.427 105.5,424.5C 103.992,421.907 101.659,420.574 98.5,420.5C 96.847,420.34 95.5137,419.674 94.5,418.5C 93.656,416.241 91.9893,415.241 89.5,415.5C 88.5084,415.672 87.8417,415.338 87.5,414.5C 87.0269,413.094 86.0269,412.427 84.5,412.5C 81.6689,411.921 79.3356,410.588 77.5,408.5C 77.0269,407.094 76.0269,406.427 74.5,406.5C 72.847,406.34 71.5137,405.674 70.5,404.5C 70.0269,403.094 69.0269,402.427 67.5,402.5C 64.0078,401.59 61.0078,399.924 58.5,397.5C 57.656,395.241 55.9893,394.241 53.5,394.5C 52.7377,392.738 51.4044,391.738 49.5,391.5C 49.0269,390.094 48.0269,389.427 46.5,389.5C 45.5,389.167 44.8333,388.5 44.5,387.5C 43.7377,385.738 42.4044,384.738 40.5,384.5C 35.1275,380.129 30.4608,375.129 26.5,369.5C 26.4456,367.368 25.4456,366.035 23.5,365.5C 21.0764,362.992 19.4097,359.992 18.5,356.5C 18.7593,354.011 17.7593,352.344 15.5,351.5C 11.4636,344.058 8.79695,336.058 7.5,327.5C 7.33139,322.819 6.99805,318.152 6.5,313.5C 6.33334,268.165 6.50001,222.832 7,177.5C 7.67076,178.252 8.5041,178.586 9.5,178.5 Z"/></g>
<g><path style="opacity:0.808" fill="#a1b1d9" d="M 9.5,177.5 C 10.7095,177.932 11.7095,178.599 12.5,179.5C 11.209,179.737 10.209,179.404 9.5,178.5C 9.5,178.167 9.5,177.833 9.5,177.5 Z"/></g>
<g><path style="opacity:0.658" fill="#728ec6" d="M 328.5,18.5 C 327.883,18.6107 327.383,18.944 327,19.5C 326.167,162.667 326.334,305.667 327.5,448.5C 327.44,449.043 327.107,449.376 326.5,449.5C 325.809,435.313 325.142,421.146 324.5,407C 325.833,368 325.833,329 324.5,290C 325.163,198.859 325.83,107.693 326.5,16.5C 327.522,16.8555 328.189,17.5222 328.5,18.5 Z"/></g>
<g><path style="opacity:0.937" fill="#91a2d2" d="M 21.5,184.5 C 23.2303,185.026 24.5637,186.026 25.5,187.5C 23.368,187.446 22.0347,186.446 21.5,184.5 Z"/></g>
<g><path style="opacity:0.537" fill="#94a7d4" d="M 291.5,187.5 C 292.906,187.973 293.573,188.973 293.5,190.5C 292.094,190.027 291.427,189.027 291.5,187.5 Z"/></g>
<g><path style="opacity:0.435" fill="#a4b5da" d="M 293.5,190.5 C 294.906,190.973 295.573,191.973 295.5,193.5C 294.094,193.027 293.427,192.027 293.5,190.5 Z"/></g>
<g><path style="opacity:0.945" fill="#8a9bcf" d="M 50.5,201.5 C 51.7095,201.932 52.7095,202.599 53.5,203.5C 51.8212,203.715 50.8212,203.048 50.5,201.5 Z"/></g>
<g><path style="opacity:1" fill="#919fd4" d="M 64.5,209.5 C 66.0269,209.427 67.0269,210.094 67.5,211.5C 65.8773,212.491 64.8773,211.824 64.5,209.5 Z"/></g>
<g><path style="opacity:0.89" fill="#91a2d4" d="M 78.5,217.5 C 79.7095,217.932 80.7095,218.599 81.5,219.5C 79.8212,219.715 78.8212,219.048 78.5,217.5 Z"/></g>
<g><path style="opacity:0.863" fill="#96a7d5" d="M 304.5,215.5 C 306.04,217.838 306.706,220.505 306.5,223.5C 305.232,221.095 304.565,218.428 304.5,215.5 Z"/></g>
<g><path style="opacity:1" fill="#92a0d5" d="M 88.5,223.5 C 90.0269,223.427 91.0269,224.094 91.5,225.5C 89.8773,226.491 88.8773,225.824 88.5,223.5 Z"/></g>
<g><path style="opacity:0.933" fill="#8c9cd1" d="M 104.5,233.5 C 105.71,233.932 106.71,234.599 107.5,235.5C 105.821,235.715 104.821,235.048 104.5,233.5 Z"/></g>
<g><path style="opacity:1" fill="#7689c9" d="M 112.5,239.5 C 114.167,240.5 115.5,241.833 116.5,243.5C 113.858,243.512 112.525,242.179 112.5,239.5 Z"/></g>
<g><path style="opacity:0.961" fill="#3356ac" d="M 166.5,102.5 C 166.833,102.5 167.167,102.5 167.5,102.5C 167.5,102.833 167.5,103.167 167.5,103.5C 166.168,222.402 166.168,341.402 167.5,460.5C 166.508,460.672 165.842,460.338 165.5,459.5C 165.167,340.332 165.5,221.332 166.5,102.5 Z"/></g>
<g><path style="opacity:0.651" fill="#aabadb" d="M 122.5,249.5 C 123.906,249.973 124.573,250.973 124.5,252.5C 123.094,252.027 122.427,251.027 122.5,249.5 Z"/></g>
<g><path style="opacity:0.925" fill="#8496c8" d="M 124.5,252.5 C 126.587,253.585 127.92,255.251 128.5,257.5C 126.413,256.415 125.08,254.749 124.5,252.5 Z"/></g>
<g><path style="opacity:0.863" fill="#8da0d0" d="M 128.5,257.5 C 130.262,258.262 131.262,259.596 131.5,261.5C 129.738,260.738 128.738,259.404 128.5,257.5 Z"/></g>
<g><path style="opacity:0.992" fill="#7386c7" d="M 132.5,263.5 C 134.25,264.659 135.25,266.326 135.5,268.5C 133.241,267.656 132.241,265.989 132.5,263.5 Z"/></g>
<g><path style="opacity:0.996" fill="#7084c4" d="M 143.5,287.5 C 145.258,290.854 146.258,294.521 146.5,298.5C 145.883,298.389 145.383,298.056 145,297.5C 144.39,294.173 143.89,290.839 143.5,287.5 Z"/></g>
<g><path style="opacity:0.943" fill="#7e8cc7" d="M 146.5,298.5 C 147.851,303.949 148.685,309.616 149,315.5C 149.667,357.167 149.667,398.833 149,440.5C 148.821,443.553 148.321,446.553 147.5,449.5C 146.261,449.058 145.261,448.391 144.5,447.5C 145.5,447.5 146.5,447.5 147.5,447.5C 147.736,397.827 147.403,348.16 146.5,298.5 Z"/></g>
<g><path style="opacity:0.439" fill="#afc0e2" d="M 5.5,313.5 C 5.83333,313.5 6.16667,313.5 6.5,313.5C 6.99805,318.152 7.33139,322.819 7.5,327.5C 6.19854,323.057 5.53188,318.391 5.5,313.5 Z"/></g>
<g><path style="opacity:1" fill="#8494ce" d="M 15.5,351.5 C 17.7593,352.344 18.7593,354.011 18.5,356.5C 16.7497,355.341 15.7497,353.674 15.5,351.5 Z"/></g>
<g><path style="opacity:1" fill="#8292ce" d="M 454.5,359.5 C 453.737,361.368 452.737,363.035 451.5,364.5C 451.5,362.833 451.5,361.167 451.5,359.5C 452.5,359.5 453.5,359.5 454.5,359.5 Z"/></g>
<g><path style="opacity:0.998" fill="#8796d0" d="M 451.5,364.5 C 450.974,366.23 449.974,367.564 448.5,368.5C 448.5,367.167 448.5,365.833 448.5,364.5C 449.5,364.5 450.5,364.5 451.5,364.5 Z"/></g>
<g><path style="opacity:0.941" fill="#8e9fd2" d="M 23.5,365.5 C 25.4456,366.035 26.4456,367.368 26.5,369.5C 25.0256,368.564 24.0256,367.23 23.5,365.5 Z"/></g>
<g><path style="opacity:0.886" fill="#90a2d2" d="M 40.5,384.5 C 42.4044,384.738 43.7377,385.738 44.5,387.5C 42.5956,387.262 41.2623,386.262 40.5,384.5 Z"/></g>
<g><path style="opacity:0.58" fill="#97aad5" d="M 46.5,389.5 C 48.0269,389.427 49.0269,390.094 49.5,391.5C 47.9731,391.573 46.9731,390.906 46.5,389.5 Z"/></g>
<g><path style="opacity:0.686" fill="#91a4d2" d="M 49.5,391.5 C 51.4044,391.738 52.7377,392.738 53.5,394.5C 51.5956,394.262 50.2623,393.262 49.5,391.5 Z"/></g>
<g><path style="opacity:1" fill="#788bca" d="M 53.5,394.5 C 55.9893,394.241 57.656,395.241 58.5,397.5C 56.5659,396.89 54.8993,395.89 53.5,394.5 Z"/></g>
<g><path style="opacity:0.463" fill="#9eb0d7" d="M 67.5,402.5 C 69.0269,402.427 70.0269,403.094 70.5,404.5C 68.9731,404.573 67.9731,403.906 67.5,402.5 Z"/></g>
<g><path style="opacity:0.584" fill="#96a9d4" d="M 74.5,406.5 C 76.0269,406.427 77.0269,407.094 77.5,408.5C 75.9731,408.573 74.9731,407.906 74.5,406.5 Z"/></g>
<g><path style="opacity:0.22" fill="#c0cde7" d="M 84.5,412.5 C 86.0269,412.427 87.0269,413.094 87.5,414.5C 85.9731,414.573 84.9731,413.906 84.5,412.5 Z"/></g>
<g><path style="opacity:1" fill="#7c8fca" d="M 89.5,415.5 C 91.9893,415.241 93.656,416.241 94.5,418.5C 92.5659,417.89 90.8993,416.89 89.5,415.5 Z"/></g>
<g><path style="opacity:0.988" fill="#8092cc" d="M 98.5,420.5 C 101.659,420.574 103.992,421.907 105.5,424.5C 102.669,423.921 100.336,422.588 98.5,420.5 Z"/></g>
<g><path style="opacity:1" fill="#8c9bd2" d="M 372.5,422.5 C 371.101,423.89 369.434,424.89 367.5,425.5C 368.598,424.603 368.598,423.77 367.5,423C 369.134,422.506 370.801,422.34 372.5,422.5 Z"/></g>
<g><path style="opacity:0.502" fill="#a3b5da" d="M 105.5,424.5 C 107.027,424.427 108.027,425.094 108.5,426.5C 106.973,426.573 105.973,425.906 105.5,424.5 Z"/></g>
<g><path style="opacity:1" fill="#8092cc" d="M 108.5,426.5 C 110.989,426.241 112.656,427.241 113.5,429.5C 111.566,428.89 109.899,427.89 108.5,426.5 Z"/></g>
<g><path style="opacity:0.42" fill="#aabcdf" d="M 119.5,432.5 C 121.027,432.427 122.027,433.094 122.5,434.5C 120.973,434.573 119.973,433.906 119.5,432.5 Z"/></g>
<g><path style="opacity:1" fill="#7c8eca" d="M 122.5,434.5 C 125.659,434.574 127.992,435.907 129.5,438.5C 126.669,437.921 124.336,436.588 122.5,434.5 Z"/></g>
<g><path style="opacity:0.996" fill="#8193cc" d="M 129.5,438.5 C 132.659,438.574 134.992,439.907 136.5,442.5C 133.669,441.921 131.336,440.588 129.5,438.5 Z"/></g>
<g><path style="opacity:1" fill="#8091cb" d="M 139.5,444.5 C 141.989,444.241 143.656,445.241 144.5,447.5C 142.566,446.89 140.899,445.89 139.5,444.5 Z"/></g>
<g><path style="opacity:1" fill="#7084c6" d="M 167.5,460.5 C 169.989,460.241 171.656,461.241 172.5,463.5C 170.566,462.89 168.899,461.89 167.5,460.5 Z"/></g>
<g><path style="opacity:1" fill="#7689c8" d="M 179.5,467.5 C 181.989,467.241 183.656,468.241 184.5,470.5C 182.566,469.89 180.899,468.89 179.5,467.5 Z"/></g>
<g><path style="opacity:1" fill="#677cc3" d="M 184.5,470.5 C 187.167,470.833 189.833,471.167 192.5,471.5C 192.5,472.5 192.5,473.5 192.5,474.5C 189.515,473.674 186.849,472.341 184.5,470.5 Z"/></g>
<g><path style="opacity:1" fill="#8595cf" d="M 285.5,472.5 C 283.819,474.008 281.819,475.008 279.5,475.5C 280.68,473.087 282.68,472.087 285.5,472.5 Z"/></g>
<g><path style="opacity:1" fill="#8595cf" d="M 279.5,475.5 C 277.351,476.736 275.018,477.736 272.5,478.5C 274.03,475.979 276.364,474.979 279.5,475.5 Z"/></g>
<g><path style="opacity:0.992" fill="#7c8fca" d="M 194.5,475.5 C 198.755,475.472 202.421,476.805 205.5,479.5C 201.467,478.975 197.8,477.642 194.5,475.5 Z"/></g>
<g><path style="opacity:0.627" fill="#93a6d2" d="M 205.5,479.5 C 208.152,479.41 210.485,480.076 212.5,481.5C 209.848,481.59 207.515,480.924 205.5,479.5 Z"/></g>
<g><path style="opacity:0.365" fill="#b3c2e0" d="M 212.5,481.5 C 215.495,481.294 218.162,481.96 220.5,483.5C 217.572,483.435 214.905,482.768 212.5,481.5 Z"/></g>
</svg>
